# xmcd CD database file
#
# Track frame offsets:
#	150
#	15615
#	37475
#	54906
#	66858
#	85564
#	107158
#	126104
#	146011
#	164876
#
# Disc length: 2404 seconds
#
# Revision: 0
# Processed by: cddbd v1.5.2PL0 Copyright (c) Steve Scherf et al.
# Submitted via: CDex 1.51
#
DISCID=8d09620a
DTITLE=Jerry Jeff Walker - Vanguard Visionaries
DYEAR=2007
DGENRE=Country
TTITLE0=Driftin' Way Of Life
TTITLE1=Louise
TTITLE2=Mr. Bojangles
TTITLE3=Trying To Love Right
TTITLE4=Lost Sea Shanty
TTITLE5=Fading Lady
TTITLE6=No Roots In Ramblin'
TTITLE7=Morning Song To Sally
TTITLE8=Dust On My Boots
TTITLE9=North Cumberland Blues
EXTD=YEAR: 2007
EXTT0=
EXTT1=
EXTT2=
EXTT3=
EXTT4=
EXTT5=
EXTT6=
EXTT7=
EXTT8=
EXTT9=
PLAYORDER=
